:SAMPLES-PER-SECOND 30
:FULLY-SPECIFIED
:DEGREES
62
root  -34.789 36.9753 -1.85289 -1.86414 88.8119 0.446716
RightUpLeg  -22.5383 4.62837 1.79747
RightLeg  66.4546 11.2207 1.70011
RightFoot  -3.57781 -0.70738 8.4899
RightToes  -2.32832e-010 -1.59028e-015 9.93923e-017
Spine  31.7955 -0.528655 -3.65136
Spine1  8.34153 -2.01973 -0.422156
HEad  -23.1048 3.5054 5.71341
LeftShoulder1  9.93923e-017 0 1.22299e-017
LeftArm  17.7365 22.0619 -80.2175
LeftForeArm  -17.6308 -37.4245 24.0003
LeftHand  0.505526 3.43542 -0.736632
RightShoulder  1.98785e-016 -4.96962e-017 1.55301e-017
RightArm  -5.3765 -24.5031 85.5188
RightForeArm  -171.607 19.3085 -16.4868
RightHand  2.6538 8.08046 26.7486
LeftUpLeg  -18.9383 -11.5063 -3.97546
LeftLeg  39.9677 -0.641062 9.41489
LeftFoot  -18.0432 -0.0985012 -1.13998
LeftToes  1.49248e-009 -4.82331e-011 8.60243e-011
63
root  -33.6281 37.6635 -1.79736 -37.4102 88.839 -35.0229
RightUpLeg  -23.6183 3.84722 2.44353
RightLeg  59.742 10.5386 0.192765
RightFoot  -3.89387 -0.70041 8.69522
RightToes  -2.32832e-010 -1.59028e-015 9.93923e-017
Spine  29.0361 -1.13732 -3.44745
Spine1  7.88651 -2.7165 0.695897
HEad  -21.3388 4.47236 5.11833
LeftShoulder1  9.93923e-017 0 1.22299e-017
LeftArm  16.8941 23.9628 -80.2036
LeftForeArm  -17.582 -38.1236 24.3777
LeftHand  0.547539 3.46274 -1.9104
RightShoulder  1.98785e-016 -4.96962e-017 1.55301e-017
RightArm  -12.3114 -30.4166 84.1711
RightForeArm  -166.256 14.3074 -11.7687
RightHand  2.63074 10.4323 24.3523
LeftUpLeg  -14.1386 -12.4309 -3.46755
LeftLeg  34.9064 0.768848 8.59973
LeftFoot  -17.6595 -0.106318 -1.48361
LeftToes  1.49248e-009 -4.82331e-011 8.60243e-011
64
root  -32.4708 38.2291 -1.7338 -63.5517 88.3414 -61.183
RightUpLeg  -24.3544 3.20763 3.07611
RightLeg  52.0568 9.44313 -1.1826
RightFoot  -3.18447 -0.742726 8.5585
RightToes  -2.32832e-010 -1.59028e-015 9.93923e-017
Spine  25.8946 -1.93241 -2.93516
Spine1  8.08997 -3.44191 1.35011
HEad  -19.7205 5.4704 4.54128
LeftShoulder1  9.93923e-017 0 1.22299e-017
LeftArm  15.6905 24.8132 -79.7727
LeftForeArm  -17.4029 -39.671 25.2486
LeftHand  0.606319 3.76693 -2.61872
RightShoulder  1.98785e-016 -4.96962e-017 1.55301e-017
RightArm  -14.1362 -36.4188 82.4582
RightForeArm  -162.833 11.8403 -10.223
RightHand  2.36767 11.807 21.6739
LeftUpLeg  -9.56131 -13.7019 -2.96786
LeftLeg  29.8838 2.7819 8.03911
LeftFoot  -17.2901 -0.106752 -1.66923
LeftToes  1.49248e-009 -4.82331e-011 8.60243e-011
65
root  -31.322 38.6725 -1.65158 -76.634 87.5885 -74.5128
RightUpLeg  -24.8076 2.7061 3.7269
RightLeg  43.5292 8.61193 -1.52455
RightFoot  -2.30219 -0.772585 8.17299
RightToes  -2.32832e-010 -1.59028e-015 9.93923e-017
Spine  22.6733 -2.78306 -2.24913
Spine1  8.31031 -4.17629 1.82722
HEad  -18.1901 6.27749 3.83581
LeftShoulder1  9.93923e-017 0 1.22299e-017
LeftArm  14.5984 24.7103 -79.1005
LeftForeArm  -17.5518 -41.3663 26.2328
LeftHand  0.651857 4.10647 -2.83032
RightShoulder  1.98785e-016 -4.96962e-017 1.55301e-017
RightArm  -13.003 -42.3437 79.851
RightForeArm  -160.203 11.5727 -9.46678
RightHand  2.10852 11.2862 20.3316
LeftUpLeg  -5.4315 -15.152 -2.40418
LeftLeg  25.1739 4.8353 7.34527
LeftFoot  -16.9257 -0.100078 -1.65915
LeftToes  1.49248e-009 -4.82331e-011 8.60243e-011
66
root  -30.1649 38.9546 -1.53446 -85.442 86.9455 -83.931
RightUpLeg  -25.1208 2.29936 4.15125
RightLeg  34.2505 8.51451 -0.951477
RightFoot  -1.09493 -0.855576 8.13519
RightToes  -2.32832e-010 -1.59028e-015 9.93923e-017
Spine  19.3804 -3.60565 -1.81604
Spine1  8.21847 -4.96932 2.38701
HEad  -16.7288 6.97463 3.17939
LeftShoulder1  9.93923e-017 0 1.22299e-017
LeftArm  13.7299 23.908 -78.2325
LeftForeArm  -17.7689 -42.9154 27.1806
LeftHand  0.658462 4.21374 -2.60711
RightShoulder  1.98785e-016 -4.96962e-017 1.55301e-017
RightArm  -9.67143 -48.0311 76.1645
RightForeArm  -158.775 12.3592 -9.04558
RightHand  2.01614 10.4576 20.1873
LeftUpLeg  -2.03319 -11.0686 -1.84705
LeftLeg  20.297 1.00075 6.45372
LeftFoot  -16.8744 -0.0939372 -1.48556
LeftToes  1.49248e-009 -4.82331e-011 8.60243e-011
67
root  -29.0029 39.0554 -1.37456 -95.3583 86.658 -94.685
RightUpLeg  -25.3067 1.90222 4.08249
RightLeg  24.6769 8.83783 -0.2536
RightFoot  0.733129 -1.00649 8.29471
RightToes  -2.32832e-010 -1.59028e-015 9.93923e-017
Spine  16.1255 -4.4021 -1.97827
Spine1  7.93781 -5.87685 3.11907
HEad  -15.3298 7.63223 2.84037
LeftShoulder1  9.93923e-017 0 1.22299e-017
LeftArm  13.1915 22.4213 -77.0921
LeftForeArm  -17.8457 -44.2132 28.0271
LeftHand  0.649416 4.22068 -2.22607
RightShoulder  1.98785e-016 -4.96962e-017 1.55301e-017
RightArm  -5.40741 -53.2896 71.6396
RightForeArm  -158.182 13.4192 -9.1172
RightHand  1.94718 10.3587 19.7746
LeftUpLeg  0.462834 -3.87464 -0.670468
LeftLeg  16.2528 -6.45318 5.20636
LeftFoot  -17.2875 -0.0898508 -1.17121
LeftToes  1.49248e-009 -4.82331e-011 8.60243e-011
68
root  -27.8703 39.0116 -1.18194 -107.302 86.5732 -107.276
RightUpLeg  -25.2578 1.69583 3.56152
RightLeg  15.7006 9.15642 0.201586
RightFoot  2.0821 -1.05573 7.92115
RightToes  -2.32832e-010 -1.59028e-015 9.93923e-017
Spine  13.5091 -5.11002 -2.52322
Spine1  7.58786 -6.76915 3.88799
HEad  -14.1733 8.01229 2.82832
LeftShoulder1  9.93923e-017 0 1.22299e-017
LeftArm  13.1194 20.0576 -75.8129
LeftForeArm  -18.3336 -45.0271 28.5476
LeftHand  0.664421 4.44959 -1.69507
RightShoulder  1.98785e-016 -4.96962e-017 1.55301e-017
RightArm  -1.21716 -57.9435 66.6649
RightForeArm  -158.63 14.2839 -9.72663
RightHand  1.82724 10.4461 18.9137
LeftUpLeg  2.60498 0.0105418 0.634193
LeftLeg  13.8876 -10.9409 3.85351
LeftFoot  -17.9856 -0.0832383 -0.776383
LeftToes  1.49248e-009 -4.82331e-011 8.60243e-011
69
root  -26.7658 38.86 -0.973279 -116.195 86.3745 -116.3
RightUpLeg  -25.0138 3.26775 2.29559
RightLeg  8.49579 7.92171 0.570574
RightFoot  1.86745 -0.879241 6.697
RightToes  -2.32832e-010 -1.59028e-015 9.93923e-017
Spine  11.9337 -5.5848 -2.74064
Spine1  7.26973 -7.36362 4.332
HEad  -13.658 7.87508 2.93988
LeftShoulder1  9.93923e-017 0 1.22299e-017
LeftArm  13.5125 16.7785 -74.804
LeftForeArm  -19.642 -44.9818 28.4163
LeftHand  0.690506 4.83102 -0.629595
RightShoulder  1.98785e-016 -4.96962e-017 1.55301e-017
RightArm  1.89967 -61.6745 61.8341
RightForeArm  -159.639 14.421 -10.3936
RightHand  1.72915 10.2962 18.3173
LeftUpLeg  4.7963 1.40102 1.7859
LeftLeg  12.7862 -12.8033 3.09822
LeftFoot  -19.0322 -0.0825729 -0.556624
LeftToes  1.49248e-009 -4.82331e-011 8.60243e-011
